<?xml version="1.0" encoding="UTF-8"?>
<svg width="194px" height="40px" viewBox="0 0 194 40" version="1.1" xmlns="http://www.w3.org/2000/svg" xmlns:xlink="http://www.w3.org/1999/xlink">
    <title>编组 6</title>
    <defs>
        <linearGradient x1="50%" y1="0%" x2="50%" y2="100%" id="linearGradient-1">
            <stop stop-color="#0C0C02" offset="0%"></stop>
            <stop stop-color="#43003E" offset="100%"></stop>
        </linearGradient>
    </defs>
    <g id="页面-1" stroke="none" stroke-width="1" fill="none" fill-rule="evenodd">
        <g id="WebLogo" transform="translate(-47.000000, -53.000000)">
            <g id="编组-6" transform="translate(47.000000, 53.000000)">
                <g id="编组-4">
                    <rect id="矩形" fill="#FFFFFF" opacity="0" x="0" y="0" width="40" height="40"></rect>
                    <g id="编组-2" transform="translate(0.406091, 0.000000)">
                        <path d="M19.4847526,34.9741614 C21.378371,35.8435079 24.9380084,35.6983963 28.9755139,36.3510642 C33.0130194,37.0037322 35.9889892,41.9888062 36.7948606,39.0391291 C37.9283434,34.8903181 35.1249343,27.124325 32.6897008,20.7727982 C32.6040412,20.5493825 35.1781092,20.4162286 36.7948606,17.3319094 C37.7521624,15.5056395 37.7324105,10.9368827 38.3702303,9.34578181 C40.3536034,4.39807259 38.0286706,5.63000565 37.8067774,5.12326752 C37.6699439,4.81078033 38.5589311,0.0756916159 37.1497227,2.38743415 C36.8525572,2.87492059 34.1544054,10.0752252 33.5245537,11.4150047 C32.1117243,14.4202832 30.855804,14.7006708 30.7708512,14.4735578 C30.1850617,13.7434097 29.7899407,12.723892 29.5854885,11.4150047 C28.6123874,5.18528912 24.4852026,3.02301183e-14 18.1936811,3.02301183e-14 C11.9021596,3.02301183e-14 6.80187377,5.11067672 6.80187377,11.4150047 C6.44717505,12.453308 6.26982569,13.4728257 6.26982569,14.4735578 C6.26982569,14.8853098 3.85930782,16.8347839 2.62487774,18.1734615 C0.656618022,20.3079405 0.0142137706,22.5668378 -4.31699518e-15,23.269118 C-0.00825294384,23.6948537 0.310290596,27.5882253 2.02993758,26.6757654 C2.14763888,26.6133121 2.32749311,26.1758022 2.57256575,25.5843513 C2.91288378,24.7630381 3.3756437,23.6019471 3.9756948,22.7790296 C4.83847567,21.5958014 6.13494421,21.2767322 6.26982569,21.2789138 C6.24228408,25.1612005 6.24228408,27.3065901 6.26982569,27.7150826 C6.50696721,31.2323242 7.26546499,32.3609294 9.11545039,34.9741614 C10.3219608,36.6784407 12.1022536,37.3777531 13.9095578,36.3510642 C14.6534567,35.928472 16.7747374,33.7300132 19.4847526,34.9741614 Z" id="椭圆形" fill="url(#linearGradient-1)"></path>
                        <ellipse id="椭圆形" fill="#FFFFFF" cx="22.9022948" cy="10.1234568" rx="4.55672294" ry="4.61538462"></ellipse>
                        <g id="编组-3" transform="translate(18.378783, 7.521368)">
                            <ellipse id="椭圆形" fill="#160B0D" transform="translate(3.664365, 3.380817) rotate(-18.000000) translate(-3.664365, -3.380817) " cx="3.6643647" cy="3.38081671" rx="2.98939966" ry="2.57878383"></ellipse>
                            <ellipse id="椭圆形" fill="#FFFFFF" cx="5.29719041" cy="2.64007597" rx="1" ry="1"></ellipse>
                        </g>
                        <ellipse id="椭圆形" fill="#FFFFFF" cx="11.3585967" cy="13.3903134" rx="1.40498957" ry="1.34852802"></ellipse>
                        <ellipse id="椭圆形" fill="#FFFFFF" transform="translate(19.423032, 22.962963) rotate(50.000000) translate(-19.423032, -22.962963) " cx="19.4230315" cy="22.962963" rx="5.83007039" ry="3.81683721"></ellipse>
                        <ellipse id="椭圆形" fill="#000000" cx="11.9471734" cy="13.0104463" rx="1" ry="1"></ellipse>
                    </g>
                </g>
                <g id="编组-5" transform="translate(48.000000, 11.000000)" fill-rule="nonzero">
                    <path d="M8.83040574,22.0652174 C10.4890614,22.0652174 11.9337822,21.7597905 13.1645681,21.1489367 C14.395354,20.5380828 15.3752286,19.6974831 16.1041919,18.6271375 C16.8331553,17.5567918 17.3032838,16.3296784 17.5145775,14.9457972 L17.5145775,14.9457972 L18.5763284,8.08585465 C18.6502812,7.63176862 18.6872576,7.16687102 18.6872576,6.69116185 C18.6872576,5.53432363 18.4416287,4.52614454 17.9503708,3.66662455 C17.4591129,2.80710457 16.7222261,2.14219289 15.7397103,1.6718895 C14.7571945,1.20158611 13.5422556,0.966434418 12.0948937,0.966434418 L12.0948937,0.966434418 L5.18558912,0.966434418 L1.9211012,22.0652174 L8.83040574,22.0652174 Z M9.63860421,16.8594454 L8.32330082,16.8594454 L9.97139181,6.17220639 L11.2866952,6.17220639 C11.8677529,6.18301796 12.300905,6.3235684 12.5861516,6.5938577 C12.8713981,6.864147 13.0140213,7.23174046 13.0140213,7.69663806 C13.0140213,7.77231906 13.0034567,7.89665214 12.9823273,8.06963729 L12.9823273,8.06963729 L11.9047293,14.9620145 C11.8202118,15.5350278 11.5851476,15.9918168 11.1995365,16.3323813 C10.8139255,16.6729458 10.2936147,16.8486338 9.63860421,16.8594454 L9.63860421,16.8594454 Z M24.1428614,22.0652174 L25.3313886,19.0487888 L29.6734744,19.0487888 L29.9270269,22.0652174 L35.3467108,22.0652174 L32.8428802,0.966434418 L27.2805731,0.966434418 L18.2477667,22.0652174 L24.1428614,22.0652174 Z M29.2931458,14.3619723 L27.1537969,14.3619723 L28.5007943,10.7617187 L29.0395933,9.05889614 L29.0395933,10.7617187 L29.2931458,14.3619723 Z M45.0651653,22.4219993 C46.755515,22.4219993 48.218724,22.1138695 49.4547922,21.4976099 C50.6908605,20.8813502 51.6707351,20.0380476 52.3944161,18.967702 C53.118097,17.8973563 53.5855844,16.6756487 53.7968781,15.302579 L53.7968781,15.302579 L55.0170993,7.43716033 C55.0910521,6.99388587 55.1280285,6.54520563 55.1280285,6.0911196 C55.1280285,4.36126806 54.5628178,3.01522733 53.4323965,2.05299742 C52.3019751,1.0907675 50.638037,0.609652538 48.4405824,0.609652538 C46.7607973,0.609652538 45.3028707,0.915079451 44.0668024,1.52593327 C42.8307342,2.1367871 41.8482184,2.97738683 41.1192551,4.04773247 C40.3902918,5.11807811 39.9201633,6.34519154 39.7088695,7.72907277 L39.7088695,7.72907277 L38.5361894,15.302579 C38.4622366,15.7566651 38.4252602,16.2215627 38.4252602,16.6972718 C38.4252602,17.8541101 38.6708892,18.8595863 39.162147,19.7137005 C39.6534049,20.5678147 40.3955741,21.2327263 41.3886546,21.7084355 C42.3817351,22.1841447 43.6072386,22.4219993 45.0651653,22.4219993 Z M45.8575167,17.2162273 C45.276459,17.2162273 44.8380245,17.0810826 44.5422133,16.8107933 C44.2464021,16.540504 44.0984965,16.1729106 44.0984965,15.708013 C44.0984965,15.632332 44.1090612,15.4971873 44.1301906,15.302579 L44.1301906,15.302579 L45.3028707,7.72907277 C45.3979529,7.14524788 45.6409406,6.68035028 46.031834,6.33437997 C46.4227274,5.98840966 46.956244,5.81542451 47.6323839,5.81542451 C48.2240063,5.81542451 48.6677231,5.95056916 48.9635343,6.22085846 C49.2593455,6.49114777 49.4072511,6.85874122 49.4072511,7.32363882 C49.4072511,7.42094297 49.3966865,7.55608762 49.3755571,7.72907277 L49.3755571,7.72907277 L48.202877,15.302579 C48.1077948,15.8864039 47.8621658,16.3513015 47.4659901,16.6972718 C47.0698144,17.0432421 46.5336566,17.2162273 45.8575167,17.2162273 Z M63.4044034,22.4219993 C65.2215294,22.4219993 66.7798206,22.124681 68.0792769,21.5300446 C69.3787333,20.9354081 70.3770961,20.0488592 71.0743653,18.8703978 C71.7716346,17.6919365 72.1202692,16.2431858 72.1202692,14.5241458 C72.1202692,13.4970465 71.9221814,12.6537439 71.5260057,11.994238 C71.12983,11.3347321 70.5857486,10.7995593 69.8937617,10.3887195 C69.2017748,9.97787977 68.3117,9.59406896 67.2235374,9.23728708 C66.5685268,9.02105564 66.0640631,8.83185313 65.7101461,8.66967955 C65.3562291,8.50750597 65.0868296,8.32100635 64.9019476,8.11018069 C64.7170656,7.89935503 64.6246246,7.6425802 64.6246246,7.33985618 C64.6246246,6.89658172 64.7830949,6.53169116 65.1000355,6.2451845 C65.4169761,5.95867784 65.8237165,5.81542451 66.3202567,5.81542451 C67.1443022,5.81542451 67.5985837,6.33978576 67.6831012,7.38850825 L67.6831012,7.38850825 L73.3404905,7.38850825 C73.3510551,7.19389995 73.3563375,6.91820486 73.3563375,6.56142299 C73.3563375,5.15591861 73.1371203,4.01800065 72.6986858,3.14766909 C72.2602513,2.27733754 71.5709056,1.63675189 70.6306485,1.22591215 C69.6903915,0.815072409 68.4596056,0.609652538 66.9382908,0.609652538 C65.2690705,0.609652538 63.7952968,0.933999702 62.5169698,1.58269403 C61.2386428,2.23138835 60.2455624,3.15577777 59.5377284,4.35586227 C58.8298945,5.55594678 58.4759775,6.96685694 58.4759775,8.58859276 C58.4759775,9.66974997 58.6872712,10.5671105 59.1098586,11.2806742 C59.5324461,11.994238 60.1055803,12.57536 60.8292612,13.0240402 C61.5529422,13.4727205 62.4799934,13.9024804 63.6104148,14.3133202 C64.4344603,14.6052326 65.0181592,14.8647104 65.3615115,15.0917534 C65.7048638,15.3187964 65.8765399,15.5944915 65.8765399,15.9188386 C65.8765399,16.3513015 65.7154285,16.6756487 65.3932055,16.8918801 C65.0709826,17.1081116 64.661601,17.2162273 64.1650608,17.2162273 C63.7002146,17.2162273 63.3304506,17.0891913 63.0557688,16.8351194 C62.781087,16.5810474 62.6384637,16.1837222 62.627899,15.6431436 L62.627899,15.6431436 L56.8912746,15.6431436 C56.8807099,15.8269403 56.8754276,16.0918238 56.8754276,16.4377941 C56.8754276,17.8541101 57.1025683,19.0001367 57.5568498,19.875874 C58.0111313,20.7516114 58.7163241,21.3948999 59.6724281,21.8057397 C60.6285322,22.2165794 61.872524,22.4219993 63.4044034,22.4219993 Z M85.261682,28.8602905 L88.1775353,10.0319376 L84.0414608,10.0319376 L83.5502029,10.6157625 C83.2649563,10.3130385 82.9083982,10.0805897 82.4805284,9.91841613 C82.0526586,9.75624254 81.5904536,9.67515575 81.0939134,9.67515575 C79.8367158,9.67515575 78.7062944,10.0319376 77.7026493,10.7455014 C76.6990041,11.4590652 75.9145762,12.4050777 75.3493655,13.5835391 C74.7841548,14.7620004 74.5015494,16.0269544 74.5015494,17.3784009 C74.5015494,18.3622539 74.6811491,19.2352884 75.0403484,19.9975042 C75.3995477,20.7597201 75.927782,21.3543565 76.6250513,21.7814136 C77.3223206,22.2084707 78.1569307,22.4219993 79.1288818,22.4219993 C79.6676808,22.4219993 80.11668,22.378753 80.4758793,22.2922604 C80.8350786,22.2057678 81.1784309,22.0435942 81.5059362,21.8057397 L81.5059362,21.8057397 L80.4124912,28.8602905 L85.261682,28.8602905 Z M80.7611258,17.702748 C80.3596677,17.702748 80.0374448,17.578415 79.794457,17.3297488 C79.5514693,17.0810826 79.4299754,16.7567355 79.4299754,16.3567073 C79.4299754,15.8161287 79.6069339,15.353934 79.9608509,14.9701232 C80.3147678,14.5863124 80.7505611,14.394407 81.2682307,14.394407 C81.6696888,14.394407 81.9919117,14.5187401 82.2348995,14.7674062 C82.4778873,15.0160724 82.5993811,15.3404195 82.5993811,15.7404477 C82.5993811,16.2810263 82.4224227,16.743221 82.0685057,17.1270318 C81.7145887,17.5108426 81.2787954,17.702748 80.7611258,17.702748 Z M95.820029,22.4219993 C99.7183981,22.4219993 101.952829,20.5786262 102.523322,16.8918801 L102.523322,16.8918801 L103.585073,10.0319376 L98.7358823,10.0319376 L97.6899784,16.7621413 C97.637155,17.0973 97.5183023,17.3378575 97.3334203,17.4838137 C97.1485383,17.6297699 96.8870623,17.702748 96.5489923,17.702748 C96.2426164,17.702748 96.0181169,17.6459873 95.8754936,17.5324658 C95.7328704,17.4189443 95.6615587,17.2432562 95.6615587,17.0054016 C95.6615587,16.8972859 95.6668411,16.8161991 95.6774058,16.7621413 L95.6774058,16.7621413 L96.7233097,10.0319376 L91.8741188,10.0319376 L90.8123679,16.8918801 C90.7384151,17.3351546 90.7014387,17.7730233 90.7014387,18.2054861 C90.7014387,21.0164949 92.4076355,22.4219993 95.820029,22.4219993 Z M110.245051,22.4219993 C110.984579,22.4219993 111.679207,22.3138835 112.328935,22.0976521 C112.978664,21.8814207 113.535951,21.5300446 114.000797,21.0435238 L114.000797,21.0435238 L114.381126,22.0652174 L117.423755,22.0652174 L119.293704,10.0319376 L115.15763,10.0319376 L114.650525,10.729284 C114.386408,10.3725022 114.040414,10.1076186 113.612545,9.93463348 C113.184675,9.76164833 112.717188,9.67515575 112.210083,9.67515575 C110.952885,9.67515575 109.822464,10.0319376 108.818818,10.7455014 C107.815173,11.4590652 107.030745,12.4050777 106.465535,13.5835391 C105.900324,14.7620004 105.617719,16.0269544 105.617719,17.3784009 C105.617719,18.3622539 105.797318,19.2352884 106.156518,19.9975042 C106.515717,20.7597201 107.043951,21.3543565 107.741221,21.7814136 C108.43849,22.2084707 109.2731,22.4219993 110.245051,22.4219993 Z M111.877295,17.702748 C111.475837,17.702748 111.153614,17.578415 110.910626,17.3297488 C110.667639,17.0810826 110.546145,16.7567355 110.546145,16.3567073 C110.546145,15.7945056 110.725744,15.3269051 111.084944,14.9539058 C111.444143,14.5809066 111.877295,14.394407 112.3844,14.394407 C112.785858,14.394407 113.10544,14.5160372 113.343145,14.7592975 C113.580851,15.0025579 113.699703,15.329608 113.699703,15.7404477 C113.699703,16.2810263 113.525386,16.743221 113.176751,17.1270318 C112.828117,17.5108426 112.394965,17.702748 111.877295,17.702748 Z M126.349858,22.0652174 L127.316527,15.8701866 C127.36935,15.4917815 127.527821,15.1917604 127.791938,14.9701232 C128.056055,14.748486 128.362431,14.6376674 128.711065,14.6376674 L128.711065,14.6376674 L130.834567,14.6376674 L131.595225,9.67515575 L130.882108,9.67515575 C130.343309,9.67515575 129.80451,9.76705412 129.265711,9.95085084 C128.726912,10.1346476 128.235655,10.4103427 127.791938,10.7779361 L127.791938,10.7779361 L127.506691,10.0319376 L123.370617,10.0319376 L121.500667,22.0652174 L126.349858,22.0652174 Z M138.207662,22.4219993 C139.4226,22.4219993 140.584716,22.1571158 141.694008,21.6273487 C142.8033,21.0975817 143.659039,20.3461774 144.261227,19.3731359 L144.261227,19.3731359 L140.125152,17.9135737 C140.019505,18.0757473 139.85047,18.2162977 139.618047,18.335225 C139.385624,18.4541523 139.132072,18.513616 138.85739,18.513616 C138.51932,18.513616 138.24992,18.4514494 138.049191,18.3271163 C137.848462,18.2027833 137.742815,18.0162836 137.732251,17.7676175 L137.732251,17.7676175 L137.732251,17.7514001 L144.926802,17.7676175 C145.032449,17.4973282 145.138095,17.0405393 145.243742,16.3972507 C145.349389,15.7539622 145.402213,15.226898 145.402213,14.8160583 C145.402213,13.7024664 145.164507,12.7591567 144.689096,11.9861293 C144.213685,11.2131019 143.579804,10.6346828 142.787453,10.250872 C141.995101,9.86706116 141.123515,9.67515575 140.172693,9.67515575 C138.820413,9.67515575 137.586986,10.0076116 136.472412,10.6725233 C135.357838,11.337435 134.478327,12.2510128 133.833882,13.4132568 C133.189436,14.5755008 132.867213,15.8647808 132.867213,17.2810967 C132.867213,18.3514424 133.096995,19.2731289 133.556559,20.0461563 C134.016122,20.8191837 134.650004,21.4084144 135.458202,21.8138483 C136.266401,22.2192823 137.182887,22.4219993 138.207662,22.4219993 Z M140.663951,14.4592764 L138.223509,14.4592764 C138.350285,14.1889871 138.535167,13.9754586 138.778155,13.8186908 C139.021142,13.661923 139.279977,13.5835391 139.554659,13.5835391 C139.829341,13.5835391 140.07497,13.6646259 140.291546,13.8267994 C140.508122,13.988973 140.632257,14.1943929 140.663951,14.4430591 L140.663951,14.4430591 L140.663951,14.4592764 Z" id="DAOSquare" fill="#FF0844"></path>
                    <path d="M7.41051196,21.650053 C9.06916764,21.650053 10.5138884,21.3446261 11.7446743,20.7337723 C12.9754602,20.1229185 13.9553348,19.2823187 14.6842982,18.2119731 C15.4132615,17.1416275 15.88339,15.914514 16.0946837,14.5306328 L16.0946837,14.5306328 L17.1564347,7.67069028 C17.2303875,7.21660426 17.2673639,6.75170665 17.2673639,6.27599748 C17.2673639,5.11915927 17.0217349,4.11098017 16.530477,3.25146018 C16.0392191,2.3919402 15.3023323,1.72702852 14.3198165,1.25672513 C13.3373007,0.786421742 12.1223619,0.551270049 10.6749999,0.551270049 L10.6749999,0.551270049 L3.76569535,0.551270049 L0.501207419,21.650053 L7.41051196,21.650053 Z M8.21871043,16.4442811 L6.90340704,16.4442811 L8.55149803,5.75704202 L9.86680142,5.75704202 C10.4478591,5.76785359 10.8810113,5.90840403 11.1662578,6.17869333 C11.4515043,6.44898264 11.5941276,6.81657609 11.5941276,7.28147369 C11.5941276,7.35715469 11.5835629,7.48148777 11.5624335,7.65447293 L11.5624335,7.65447293 L10.4848355,14.5468501 C10.4003181,15.1198635 10.1652538,15.5766524 9.77964276,15.9172169 C9.39403173,16.2577814 8.87372095,16.4334695 8.21871043,16.4442811 L8.21871043,16.4442811 Z M22.7229676,21.650053 L23.9114948,18.6336244 L28.2535807,18.6336244 L28.5071331,21.650053 L33.926817,21.650053 L31.4229864,0.551270049 L25.8606793,0.551270049 L16.8278729,21.650053 L22.7229676,21.650053 Z M27.873252,13.9468079 L25.7339031,13.9468079 L27.0809005,10.3465544 L27.6196995,8.64373177 L27.6196995,10.3465544 L27.873252,13.9468079 Z M43.6452715,22.0068349 C45.3356212,22.0068349 46.7988302,21.6987051 48.0348985,21.0824455 C49.2709667,20.4661859 50.2508413,19.6228833 50.9745223,18.5525376 C51.6982033,17.482192 52.1656906,16.2604843 52.3769843,14.8874147 L52.3769843,14.8874147 L53.5972056,7.02199596 C53.6711584,6.5787215 53.7081348,6.13004126 53.7081348,5.67595523 C53.7081348,3.94610369 53.1429241,2.60006296 52.0125027,1.63783305 C50.8820813,0.675603128 49.2181433,0.194488169 47.0206886,0.194488169 C45.3409036,0.194488169 43.8829769,0.499915082 42.6469087,1.11076891 C41.4108404,1.72162273 40.4283246,2.56222246 39.6993613,3.6325681 C38.970398,4.70291374 38.5002695,5.93002717 38.2889758,7.3139084 L38.2889758,7.3139084 L37.1162956,14.8874147 C37.0423428,15.3415007 37.0053664,15.8063983 37.0053664,16.2821075 C37.0053664,17.4389457 37.2509954,18.4444219 37.7422533,19.2985361 C38.2335112,20.1526503 38.9756803,20.817562 39.9687608,21.2932711 C40.9618413,21.7689803 42.1873448,22.0068349 43.6452715,22.0068349 Z M44.4376229,16.8010629 C43.8565652,16.8010629 43.4181307,16.6659183 43.1223195,16.395629 C42.8265083,16.1253397 42.6786027,15.7577462 42.6786027,15.2928486 C42.6786027,15.2171676 42.6891674,15.082023 42.7102968,14.8874147 L42.7102968,14.8874147 L43.8829769,7.3139084 C43.9780591,6.73008351 44.2210469,6.26518591 44.6119402,5.9192156 C45.0028336,5.57324529 45.5363503,5.40026014 46.2124901,5.40026014 C46.8041126,5.40026014 47.2478294,5.53540479 47.5436406,5.80569409 C47.8394518,6.0759834 47.9873574,6.44357685 47.9873574,6.90847445 C47.9873574,7.0057786 47.9767927,7.14092325 47.9556633,7.3139084 L47.9556633,7.3139084 L46.7829832,14.8874147 C46.687901,15.4712396 46.4422721,15.9361372 46.0460963,16.2821075 C45.6499206,16.6280778 45.1137628,16.8010629 44.4376229,16.8010629 Z M61.9845096,22.0068349 C63.8016356,22.0068349 65.3599268,21.7095167 66.6593831,21.1148802 C67.9588395,20.5202437 68.9572023,19.6336948 69.6544716,18.4552335 C70.3517408,17.2767721 70.7003755,15.8280214 70.7003755,14.1089815 C70.7003755,13.0818821 70.5022876,12.2385795 70.1061119,11.5790736 C69.7099362,10.9195677 69.1658549,10.3843949 68.4738679,9.97355514 C67.781881,9.5627154 66.8918062,9.17890459 65.8036436,8.82212271 C65.1486331,8.60589127 64.6441693,8.41668876 64.2902523,8.25451518 C63.9363354,8.0923416 63.6669359,7.90584198 63.4820539,7.69501632 C63.2971719,7.48419066 63.2047309,7.22741583 63.2047309,6.92469181 C63.2047309,6.48141735 63.3632011,6.11652679 63.6801417,5.83002013 C63.9970823,5.54351347 64.4038227,5.40026014 64.9003629,5.40026014 C65.7244084,5.40026014 66.1786899,5.92462139 66.2632074,6.97334388 L66.2632074,6.97334388 L71.9205967,6.97334388 C71.9311614,6.77873558 71.9364437,6.5030405 71.9364437,6.14625862 C71.9364437,4.74075424 71.7172265,3.60283628 71.278792,2.73250472 C70.8403576,1.86217317 70.1510118,1.22158752 69.2107548,0.81074778 C68.2704977,0.39990804 67.0397118,0.194488169 65.5183971,0.194488169 C63.8491767,0.194488169 62.375403,0.518835333 61.097076,1.16752966 C59.818749,1.81622399 58.8256686,2.7406134 58.1178346,3.94069791 C57.4100007,5.14078241 57.0560837,6.55169257 57.0560837,8.17342839 C57.0560837,9.2545856 57.2673774,10.1519461 57.6899648,10.8655098 C58.1125523,11.5790736 58.6856865,12.1601956 59.4093675,12.6088758 C60.1330485,13.0575561 61.0600996,13.4873161 62.190521,13.8981558 C63.0145665,14.1900683 63.5982654,14.449546 63.9416177,14.676589 C64.28497,14.903632 64.4566461,15.1793271 64.4566461,15.5036743 C64.4566461,15.9361372 64.2955347,16.2604843 63.9733118,16.4767158 C63.6510888,16.6929472 63.2417073,16.8010629 62.745167,16.8010629 C62.2803208,16.8010629 61.9105568,16.674027 61.635875,16.419955 C61.3611932,16.1658831 61.2185699,15.7685578 61.2080052,15.2279792 L61.2080052,15.2279792 L55.4713808,15.2279792 C55.4608161,15.4117759 55.4555338,15.6766594 55.4555338,16.0226297 C55.4555338,17.4389457 55.6826745,18.5849723 56.136956,19.4607097 C56.5912375,20.336447 57.2964303,20.9797356 58.2525344,21.3905753 C59.2086384,21.801415 60.4526302,22.0068349 61.9845096,22.0068349 Z M83.8417882,28.4451261 L86.7576415,9.61677326 L82.621567,9.61677326 L82.1303091,10.2005982 C81.8450626,9.89787414 81.4885044,9.66542534 81.0606346,9.50325176 C80.6327649,9.34107817 80.1705599,9.25999138 79.6740196,9.25999138 C78.416822,9.25999138 77.2864006,9.61677326 76.2827555,10.330337 C75.2791103,11.0439008 74.4946824,11.9899133 73.9294717,13.1683747 C73.364261,14.3468361 73.0816557,15.61179 73.0816557,16.9632365 C73.0816557,17.9470896 73.2612553,18.820124 73.6204546,19.5823399 C73.979654,20.3445557 74.5078882,20.9391922 75.2051575,21.3662493 C75.9024268,21.7933064 76.737037,22.0068349 77.7089881,22.0068349 C78.247787,22.0068349 78.6967862,21.9635886 79.0559855,21.877096 C79.4151848,21.7906035 79.7585371,21.6284299 80.0860424,21.3905753 L80.0860424,21.3905753 L78.9925974,28.4451261 L83.8417882,28.4451261 Z M79.341232,17.2875837 C78.939774,17.2875837 78.617551,17.1632506 78.3745633,16.9145844 C78.1315755,16.6659183 78.0100816,16.3415711 78.0100816,15.9415429 C78.0100816,15.4009643 78.1870401,14.9387696 78.5409571,14.5549588 C78.894874,14.171148 79.3306673,13.9792426 79.8483369,13.9792426 C80.249795,13.9792426 80.5720179,14.1035757 80.8150057,14.3522418 C81.0579935,14.600908 81.1794874,14.9252552 81.1794874,15.3252833 C81.1794874,15.8658619 81.0025289,16.3280567 80.6486119,16.7118675 C80.2946949,17.0956783 79.8589016,17.2875837 79.341232,17.2875837 Z M94.4001352,22.0068349 C98.2985043,22.0068349 100.532935,20.1634619 101.103428,16.4767158 L101.103428,16.4767158 L102.165179,9.61677326 L97.3159885,9.61677326 L96.2700846,16.3469769 C96.2172612,16.6821356 96.0984085,16.9226931 95.9135265,17.0686493 C95.7286445,17.2146056 95.4671685,17.2875837 95.1290986,17.2875837 C94.8227227,17.2875837 94.5982231,17.2308229 94.4555998,17.1173014 C94.3129766,17.0037799 94.2416649,16.8280919 94.2416649,16.5902373 C94.2416649,16.4821216 94.2469473,16.4010348 94.257512,16.3469769 L94.257512,16.3469769 L95.3034159,9.61677326 L90.4542251,9.61677326 L89.3924741,16.4767158 C89.3185213,16.9199902 89.2815449,17.3578589 89.2815449,17.7903218 C89.2815449,20.6013305 90.9877417,22.0068349 94.4001352,22.0068349 Z M108.825157,22.0068349 C109.564685,22.0068349 110.259313,21.8987192 110.909042,21.6824877 C111.55877,21.4662563 112.116057,21.1148802 112.580903,20.6283595 L112.580903,20.6283595 L112.961232,21.650053 L116.003861,21.650053 L117.873811,9.61677326 L113.737736,9.61677326 L113.230631,10.3141197 C112.966514,9.95733778 112.620521,9.69245427 112.192651,9.51946911 C111.764781,9.34648396 111.297294,9.25999138 110.790189,9.25999138 C109.532991,9.25999138 108.40257,9.61677326 107.398925,10.330337 C106.39528,11.0439008 105.610852,11.9899133 105.045641,13.1683747 C104.48043,14.3468361 104.197825,15.61179 104.197825,16.9632365 C104.197825,17.9470896 104.377425,18.820124 104.736624,19.5823399 C105.095823,20.3445557 105.624057,20.9391922 106.321327,21.3662493 C107.018596,21.7933064 107.853206,22.0068349 108.825157,22.0068349 Z M110.457401,17.2875837 C110.055943,17.2875837 109.73372,17.1632506 109.490732,16.9145844 C109.247745,16.6659183 109.126251,16.3415711 109.126251,15.9415429 C109.126251,15.3793412 109.30585,14.9117407 109.66505,14.5387415 C110.024249,14.1657422 110.457401,13.9792426 110.964506,13.9792426 C111.365964,13.9792426 111.685546,14.1008728 111.923251,14.3441332 C112.160957,14.5873935 112.27981,14.9144436 112.27981,15.3252833 C112.27981,15.8658619 112.105492,16.3280567 111.756858,16.7118675 C111.408223,17.0956783 110.975071,17.2875837 110.457401,17.2875837 Z M124.929964,21.650053 L125.896633,15.4550222 C125.949457,15.0766172 126.107927,14.7765961 126.372044,14.5549588 C126.636161,14.3333216 126.942537,14.222503 127.291172,14.222503 L127.291172,14.222503 L129.414674,14.222503 L130.175331,9.25999138 L129.462215,9.25999138 C128.923416,9.25999138 128.384617,9.35188975 127.845818,9.53568647 C127.307019,9.7194832 126.815761,9.99517829 126.372044,10.3627717 L126.372044,10.3627717 L126.086797,9.61677326 L121.950723,9.61677326 L120.080774,21.650053 L124.929964,21.650053 Z M136.787768,22.0068349 C138.002707,22.0068349 139.164822,21.7419514 140.274114,21.2121844 C141.383406,20.6824173 142.239146,19.9310131 142.841333,18.9579716 L142.841333,18.9579716 L138.705258,17.4984093 C138.599611,17.6605829 138.430576,17.8011334 138.198153,17.9200606 C137.96573,18.0389879 137.712178,18.0984516 137.437496,18.0984516 C137.099426,18.0984516 136.830027,18.036285 136.629298,17.911952 C136.428568,17.7876189 136.322922,17.6011193 136.312357,17.3524531 L136.312357,17.3524531 L136.312357,17.3362358 L143.506908,17.3524531 C143.612555,17.0821638 143.718202,16.6253749 143.823849,15.9820863 C143.929495,15.3387978 143.982319,14.8117337 143.982319,14.4008939 C143.982319,13.287302 143.744613,12.3439923 143.269203,11.5709649 C142.793792,10.7979375 142.159911,10.2195184 141.367559,9.8357076 C140.575208,9.45189679 139.703621,9.25999138 138.752799,9.25999138 C137.40052,9.25999138 136.167092,9.59244723 135.052518,10.2573589 C133.937944,10.9222706 133.058434,11.8358484 132.413988,12.9980924 C131.769542,14.1603364 131.447319,15.4496164 131.447319,16.8659324 C131.447319,17.936278 131.677101,18.8579645 132.136665,19.6309919 C132.596229,20.4040193 133.23011,20.99325 134.038308,21.398684 C134.846507,21.8041179 135.762993,22.0068349 136.787768,22.0068349 Z M139.244057,14.044112 L136.803615,14.044112 C136.930391,13.7738227 137.115273,13.5602942 137.358261,13.4035264 C137.601249,13.2467586 137.860083,13.1683747 138.134765,13.1683747 C138.409447,13.1683747 138.655076,13.2494615 138.871652,13.4116351 C139.088228,13.5738087 139.212363,13.7792285 139.244057,14.0278947 L139.244057,14.0278947 L139.244057,14.044112 Z" id="DAOSquare" fill="#2B0525"></path>
                </g>
            </g>
        </g>
    </g>
</svg>