<?xml version="1.0" encoding="UTF-8"?>
<svg width="500px" height="500px" viewBox="0 0 500 500" version="1.1" xmlns="http://www.w3.org/2000/svg" xmlns:xlink="http://www.w3.org/1999/xlink">
    <title>DAOSquare Logo5备份</title>
    <defs>
        <linearGradient x1="55.1658142%" y1="-12.5140292%" x2="55.1658142%" y2="88.4960718%" id="linearGradient-1">
            <stop stop-color="#FF96D5" offset="0%"></stop>
            <stop stop-color="#FFD390" offset="100%"></stop>
        </linearGradient>
        <linearGradient x1="50%" y1="0%" x2="50%" y2="100%" id="linearGradient-2">
            <stop stop-color="#0C0C02" offset="0%"></stop>
            <stop stop-color="#43003E" offset="100%"></stop>
        </linearGradient>
    </defs>
    <g id="页面-1" stroke="none" stroke-width="1" fill="none" fill-rule="evenodd">
        <g id="画板" transform="translate(-1006.000000, -233.000000)" fill-rule="nonzero">
            <g id="DAOSquare-Logo5备份" transform="translate(1006.000000, 233.000000)">
                <circle id="椭圆形备份" fill="url(#linearGradient-1)" cx="250" cy="250" r="250"></circle>
                <g id="编组-4" transform="translate(101.000000, 100.000000)">
                    <rect id="矩形" fill="#FFFFFF" opacity="0" x="0" y="0" width="300" height="300"></rect>
                    <g id="编组-2" transform="translate(3.044528, 0.000000)">
                        <path d="M146.136802,262.306211 C160.33894,268.826309 187.03622,267.737972 217.317511,272.632982 C247.598802,277.527992 269.918576,314.916047 275.962611,292.793469 C284.463732,261.677385 263.438164,203.432437 245.173913,155.795986 C244.531466,154.120369 263.836976,153.121714 275.962611,129.989321 C283.142375,116.292296 282.994236,82.0266203 287.777884,70.0933636 C302.653182,32.9855444 285.216187,42.2250423 283.551988,38.4245064 C282.525736,36.0808525 289.19314,0.567687119 278.624077,17.9057561 C276.395336,21.5619044 256.159198,75.5641888 251.43531,85.6125356 C240.83909,108.152124 231.419687,110.255031 230.782541,108.551683 C226.389119,103.075573 223.425712,95.4291903 221.89232,85.6125356 C214.594063,38.8896684 183.640176,-6.47788443e-16 136.453765,-6.47788443e-16 C89.2673539,-6.47788443e-16 51.0152099,38.3300754 51.0152099,85.6125356 C48.3549695,93.3998101 47.0248493,101.046193 47.0248493,108.551683 C47.0248493,111.639823 28.9459653,126.260879 19.6877397,136.300961 C4.9257918,152.309554 0.107759908,169.251283 1.3828565e-14,174.518385 C-0.0607404502,177.711403 2.3283361,206.91169 15.2256885,200.068241 C16.1084482,199.599841 17.457355,196.318517 19.2953997,191.882635 C21.847785,185.722786 25.3184844,177.014603 29.8188676,170.842722 C36.2897241,161.96851 46.0132382,159.575492 47.0248493,159.591853 C46.8182872,188.709004 46.8182872,204.799426 47.0248493,207.863119 C48.8034107,234.242432 54.492144,242.70697 68.3670345,262.306211 C77.4158628,275.088305 90.7680585,280.333148 104.322841,272.632982 C109.902082,269.46354 125.811688,252.975099 146.136802,262.306211 Z" id="椭圆形" fill="url(#linearGradient-2)"></path>
                        <ellipse id="椭圆形" fill="#FFFFFF" cx="171.768368" cy="75.9259259" rx="34.175422" ry="34.6153846"></ellipse>
                        <g id="编组-3" transform="translate(138.024941, 56.443798)">
                            <ellipse id="椭圆形" fill="#160B0D" transform="translate(27.299820, 25.322583) rotate(-18.000000) translate(-27.299820, -25.322583) " cx="27.2998204" cy="25.3225834" rx="22.4204974" ry="19.3408787"></ellipse>
                            <ellipse id="椭圆形" fill="#FFFFFF" cx="39.5460131" cy="19.767028" rx="4.69912053" ry="4.7008547"></ellipse>
                        </g>
                        <ellipse id="椭圆形" fill="#FFFFFF" cx="85.1906319" cy="100.42735" rx="10.5374218" ry="10.1139601"></ellipse>
                        <ellipse id="椭圆形" fill="#FFFFFF" transform="translate(145.673893, 172.222222) rotate(50.000000) translate(-145.673893, -172.222222) " cx="145.673893" cy="172.222222" rx="43.7255279" ry="28.6262802"></ellipse>
                        <ellipse id="椭圆形" fill="#000000" cx="89.6049572" cy="97.5783476" rx="2.13596388" ry="2.13675214"></ellipse>
                    </g>
                </g>
            </g>
        </g>
    </g>
</svg>